<mxfile host="app.diagrams.net" modified="2023-11-16T07:32:53.576Z" agent="Mozilla/5.0 (X11; Linux x86_64) AppleWebKit/537.36 (KHTML, like Gecko) Chrome/117.0.0.0 Safari/537.36 Edg/117.0.2045.55" etag="w-Yxx2wKgSQLG_7sVEIb" version="22.1.2" type="github">
  <diagram id="C5RBs43oDa-KdzZeNtuy" name="Page-1">
    <mxGraphModel dx="1417" dy="816" grid="1" gridSize="10" guides="1" tooltips="1" connect="1" arrows="1" fold="1" page="1" pageScale="1" pageWidth="827" pageHeight="1169" math="0" shadow="0">
      <root>
        <mxCell id="WIyWlLk6GJQsqaUBKTNV-0" />
        <mxCell id="WIyWlLk6GJQsqaUBKTNV-1" parent="WIyWlLk6GJQsqaUBKTNV-0" />
        <mxCell id="9TsU0oxgmrffolLevtJS-0" value="&lt;font style=&quot;font-size: 23px;&quot;&gt;其中绿色框为终结符&lt;/font&gt;" style="text;strokeColor=none;align=left;fillColor=none;html=1;verticalAlign=middle;whiteSpace=wrap;rounded=0;" parent="WIyWlLk6GJQsqaUBKTNV-1" vertex="1">
          <mxGeometry x="691" y="880" width="225" height="50" as="geometry" />
        </mxCell>
        <mxCell id="9BdcQisxTK_R5sLs8ezM-1" style="edgeStyle=orthogonalEdgeStyle;rounded=0;orthogonalLoop=1;jettySize=auto;html=1;exitX=1;exitY=0.5;exitDx=0;exitDy=0;entryX=0;entryY=0.5;entryDx=0;entryDy=0;" parent="WIyWlLk6GJQsqaUBKTNV-1" source="9TsU0oxgmrffolLevtJS-1" target="9BdcQisxTK_R5sLs8ezM-0" edge="1">
          <mxGeometry relative="1" as="geometry" />
        </mxCell>
        <mxCell id="9TsU0oxgmrffolLevtJS-1" value="&lt;font style=&quot;font-size: 19px;&quot;&gt;module&lt;/font&gt;" style="rounded=1;whiteSpace=wrap;html=1;" parent="WIyWlLk6GJQsqaUBKTNV-1" vertex="1">
          <mxGeometry x="70" y="580" width="105" height="40" as="geometry" />
        </mxCell>
        <mxCell id="9TsU0oxgmrffolLevtJS-55" style="edgeStyle=orthogonalEdgeStyle;rounded=0;orthogonalLoop=1;jettySize=auto;html=1;exitX=1;exitY=0.5;exitDx=0;exitDy=0;entryX=0;entryY=0.5;entryDx=0;entryDy=0;" parent="WIyWlLk6GJQsqaUBKTNV-1" source="9TsU0oxgmrffolLevtJS-49" target="9TsU0oxgmrffolLevtJS-51" edge="1">
          <mxGeometry relative="1" as="geometry" />
        </mxCell>
        <mxCell id="9TsU0oxgmrffolLevtJS-49" value="&lt;font style=&quot;font-size: 19px;&quot;&gt;directive_stmt&lt;/font&gt;" style="rounded=1;whiteSpace=wrap;html=1;" parent="WIyWlLk6GJQsqaUBKTNV-1" vertex="1">
          <mxGeometry x="763" y="140" width="160" height="40" as="geometry" />
        </mxCell>
        <mxCell id="9TsU0oxgmrffolLevtJS-58" style="edgeStyle=orthogonalEdgeStyle;rounded=0;orthogonalLoop=1;jettySize=auto;html=1;exitX=1;exitY=0.5;exitDx=0;exitDy=0;entryX=0;entryY=0.5;entryDx=0;entryDy=0;" parent="WIyWlLk6GJQsqaUBKTNV-1" source="9TsU0oxgmrffolLevtJS-50" target="9TsU0oxgmrffolLevtJS-56" edge="1">
          <mxGeometry relative="1" as="geometry" />
        </mxCell>
        <mxCell id="9BdcQisxTK_R5sLs8ezM-27" style="edgeStyle=orthogonalEdgeStyle;rounded=0;orthogonalLoop=1;jettySize=auto;html=1;exitX=1;exitY=0.5;exitDx=0;exitDy=0;entryX=0;entryY=0.5;entryDx=0;entryDy=0;" parent="WIyWlLk6GJQsqaUBKTNV-1" source="9TsU0oxgmrffolLevtJS-50" target="9BdcQisxTK_R5sLs8ezM-23" edge="1">
          <mxGeometry relative="1" as="geometry" />
        </mxCell>
        <mxCell id="9TsU0oxgmrffolLevtJS-50" value="&lt;font style=&quot;font-size: 19px;&quot;&gt;declaration_stmt&lt;/font&gt;" style="rounded=1;whiteSpace=wrap;html=1;" parent="WIyWlLk6GJQsqaUBKTNV-1" vertex="1">
          <mxGeometry x="773" y="338" width="160" height="40" as="geometry" />
        </mxCell>
        <mxCell id="9TsU0oxgmrffolLevtJS-51" value="&lt;font style=&quot;font-size: 19px;&quot;&gt;label_stmt&lt;/font&gt;" style="rounded=1;whiteSpace=wrap;html=1;" parent="WIyWlLk6GJQsqaUBKTNV-1" vertex="1">
          <mxGeometry x="983" y="140" width="110" height="40" as="geometry" />
        </mxCell>
        <mxCell id="9TsU0oxgmrffolLevtJS-62" style="edgeStyle=orthogonalEdgeStyle;rounded=0;orthogonalLoop=1;jettySize=auto;html=1;exitX=1;exitY=0.5;exitDx=0;exitDy=0;entryX=0;entryY=0.5;entryDx=0;entryDy=0;" parent="WIyWlLk6GJQsqaUBKTNV-1" source="9TsU0oxgmrffolLevtJS-56" target="9TsU0oxgmrffolLevtJS-61" edge="1">
          <mxGeometry relative="1" as="geometry" />
        </mxCell>
        <mxCell id="9BdcQisxTK_R5sLs8ezM-14" style="edgeStyle=orthogonalEdgeStyle;rounded=0;orthogonalLoop=1;jettySize=auto;html=1;exitX=1;exitY=0.5;exitDx=0;exitDy=0;entryX=0;entryY=0.5;entryDx=0;entryDy=0;" parent="WIyWlLk6GJQsqaUBKTNV-1" source="9TsU0oxgmrffolLevtJS-56" target="9BdcQisxTK_R5sLs8ezM-13" edge="1">
          <mxGeometry relative="1" as="geometry" />
        </mxCell>
        <mxCell id="9TsU0oxgmrffolLevtJS-56" value="&lt;font style=&quot;font-size: 19px;&quot;&gt;var_decl&lt;/font&gt;" style="rounded=1;whiteSpace=wrap;html=1;" parent="WIyWlLk6GJQsqaUBKTNV-1" vertex="1">
          <mxGeometry x="983" y="210" width="100" height="40" as="geometry" />
        </mxCell>
        <mxCell id="9BdcQisxTK_R5sLs8ezM-19" style="edgeStyle=orthogonalEdgeStyle;rounded=0;orthogonalLoop=1;jettySize=auto;html=1;exitX=1;exitY=0.5;exitDx=0;exitDy=0;entryX=0;entryY=0.5;entryDx=0;entryDy=0;" parent="WIyWlLk6GJQsqaUBKTNV-1" source="9TsU0oxgmrffolLevtJS-61" target="9BdcQisxTK_R5sLs8ezM-15" edge="1">
          <mxGeometry relative="1" as="geometry" />
        </mxCell>
        <mxCell id="9BdcQisxTK_R5sLs8ezM-20" style="edgeStyle=orthogonalEdgeStyle;rounded=0;orthogonalLoop=1;jettySize=auto;html=1;exitX=1;exitY=0.5;exitDx=0;exitDy=0;entryX=0;entryY=0.5;entryDx=0;entryDy=0;" parent="WIyWlLk6GJQsqaUBKTNV-1" source="9TsU0oxgmrffolLevtJS-61" target="9BdcQisxTK_R5sLs8ezM-16" edge="1">
          <mxGeometry relative="1" as="geometry" />
        </mxCell>
        <mxCell id="9BdcQisxTK_R5sLs8ezM-21" style="edgeStyle=orthogonalEdgeStyle;rounded=0;orthogonalLoop=1;jettySize=auto;html=1;exitX=1;exitY=0.5;exitDx=0;exitDy=0;entryX=0;entryY=0.5;entryDx=0;entryDy=0;" parent="WIyWlLk6GJQsqaUBKTNV-1" source="9TsU0oxgmrffolLevtJS-61" target="9BdcQisxTK_R5sLs8ezM-17" edge="1">
          <mxGeometry relative="1" as="geometry" />
        </mxCell>
        <mxCell id="9BdcQisxTK_R5sLs8ezM-22" style="edgeStyle=orthogonalEdgeStyle;rounded=0;orthogonalLoop=1;jettySize=auto;html=1;exitX=1;exitY=0.5;exitDx=0;exitDy=0;entryX=0;entryY=0.5;entryDx=0;entryDy=0;" parent="WIyWlLk6GJQsqaUBKTNV-1" source="9TsU0oxgmrffolLevtJS-61" target="9BdcQisxTK_R5sLs8ezM-18" edge="1">
          <mxGeometry relative="1" as="geometry" />
        </mxCell>
        <mxCell id="9TsU0oxgmrffolLevtJS-61" value="&lt;font style=&quot;font-size: 19px;&quot;&gt;var_decl_attr&lt;/font&gt;" style="rounded=1;whiteSpace=wrap;html=1;" parent="WIyWlLk6GJQsqaUBKTNV-1" vertex="1">
          <mxGeometry x="1123" y="150" width="130" height="40" as="geometry" />
        </mxCell>
        <mxCell id="9BdcQisxTK_R5sLs8ezM-34" style="edgeStyle=orthogonalEdgeStyle;rounded=0;orthogonalLoop=1;jettySize=auto;html=1;exitX=1;exitY=0.5;exitDx=0;exitDy=0;entryX=0;entryY=0.5;entryDx=0;entryDy=0;" parent="WIyWlLk6GJQsqaUBKTNV-1" source="9BdcQisxTK_R5sLs8ezM-0" target="9BdcQisxTK_R5sLs8ezM-30" edge="1">
          <mxGeometry relative="1" as="geometry" />
        </mxCell>
        <mxCell id="9BdcQisxTK_R5sLs8ezM-35" style="edgeStyle=orthogonalEdgeStyle;rounded=0;orthogonalLoop=1;jettySize=auto;html=1;exitX=1;exitY=0.5;exitDx=0;exitDy=0;entryX=0;entryY=0.5;entryDx=0;entryDy=0;" parent="WIyWlLk6GJQsqaUBKTNV-1" source="9BdcQisxTK_R5sLs8ezM-0" target="9BdcQisxTK_R5sLs8ezM-31" edge="1">
          <mxGeometry relative="1" as="geometry" />
        </mxCell>
        <mxCell id="9BdcQisxTK_R5sLs8ezM-36" style="edgeStyle=orthogonalEdgeStyle;rounded=0;orthogonalLoop=1;jettySize=auto;html=1;exitX=1;exitY=0.5;exitDx=0;exitDy=0;entryX=0;entryY=0.5;entryDx=0;entryDy=0;" parent="WIyWlLk6GJQsqaUBKTNV-1" source="9BdcQisxTK_R5sLs8ezM-0" target="9BdcQisxTK_R5sLs8ezM-32" edge="1">
          <mxGeometry relative="1" as="geometry" />
        </mxCell>
        <mxCell id="9BdcQisxTK_R5sLs8ezM-37" style="edgeStyle=orthogonalEdgeStyle;rounded=0;orthogonalLoop=1;jettySize=auto;html=1;exitX=1;exitY=0.5;exitDx=0;exitDy=0;entryX=0;entryY=0.5;entryDx=0;entryDy=0;" parent="WIyWlLk6GJQsqaUBKTNV-1" source="9BdcQisxTK_R5sLs8ezM-0" target="9BdcQisxTK_R5sLs8ezM-33" edge="1">
          <mxGeometry relative="1" as="geometry" />
        </mxCell>
        <mxCell id="9BdcQisxTK_R5sLs8ezM-0" value="&lt;font style=&quot;font-size: 19px;&quot;&gt;section&lt;/font&gt;" style="rounded=1;whiteSpace=wrap;html=1;" parent="WIyWlLk6GJQsqaUBKTNV-1" vertex="1">
          <mxGeometry x="210" y="580" width="160" height="40" as="geometry" />
        </mxCell>
        <mxCell id="9BdcQisxTK_R5sLs8ezM-11" style="edgeStyle=orthogonalEdgeStyle;rounded=0;orthogonalLoop=1;jettySize=auto;html=1;exitX=1;exitY=0.5;exitDx=0;exitDy=0;entryX=0;entryY=0.5;entryDx=0;entryDy=0;" parent="WIyWlLk6GJQsqaUBKTNV-1" source="9BdcQisxTK_R5sLs8ezM-9" target="9TsU0oxgmrffolLevtJS-49" edge="1">
          <mxGeometry relative="1" as="geometry" />
        </mxCell>
        <mxCell id="9BdcQisxTK_R5sLs8ezM-12" style="edgeStyle=orthogonalEdgeStyle;rounded=0;orthogonalLoop=1;jettySize=auto;html=1;exitX=1;exitY=0.5;exitDx=0;exitDy=0;entryX=0;entryY=0.5;entryDx=0;entryDy=0;" parent="WIyWlLk6GJQsqaUBKTNV-1" source="9BdcQisxTK_R5sLs8ezM-9" target="9TsU0oxgmrffolLevtJS-50" edge="1">
          <mxGeometry relative="1" as="geometry" />
        </mxCell>
        <mxCell id="9BdcQisxTK_R5sLs8ezM-9" value="&lt;font style=&quot;font-size: 19px;&quot;&gt;stmt&lt;/font&gt;" style="rounded=1;whiteSpace=wrap;html=1;" parent="WIyWlLk6GJQsqaUBKTNV-1" vertex="1">
          <mxGeometry x="579" y="338" width="123" height="40" as="geometry" />
        </mxCell>
        <mxCell id="9BdcQisxTK_R5sLs8ezM-13" value="&lt;font style=&quot;font-size: 19px;&quot;&gt;identifier&lt;/font&gt;" style="rounded=1;whiteSpace=wrap;html=1;fillColor=#d5e8d4;strokeColor=#82b366;" parent="WIyWlLk6GJQsqaUBKTNV-1" vertex="1">
          <mxGeometry x="1123" y="250" width="130" height="40" as="geometry" />
        </mxCell>
        <mxCell id="9BdcQisxTK_R5sLs8ezM-15" value="&lt;font style=&quot;font-size: 19px;&quot;&gt;address_space&lt;/font&gt;" style="rounded=1;whiteSpace=wrap;html=1;fillColor=#d5e8d4;strokeColor=#82b366;" parent="WIyWlLk6GJQsqaUBKTNV-1" vertex="1">
          <mxGeometry x="1303" y="70" width="150" height="40" as="geometry" />
        </mxCell>
        <mxCell id="9BdcQisxTK_R5sLs8ezM-16" value="&lt;font style=&quot;font-size: 19px;&quot;&gt;data_type&lt;/font&gt;" style="rounded=1;whiteSpace=wrap;html=1;fillColor=#d5e8d4;strokeColor=#82b366;" parent="WIyWlLk6GJQsqaUBKTNV-1" vertex="1">
          <mxGeometry x="1303" y="127" width="150" height="40" as="geometry" />
        </mxCell>
        <mxCell id="9BdcQisxTK_R5sLs8ezM-17" value="&lt;font style=&quot;font-size: 19px;&quot;&gt;align&lt;/font&gt;" style="rounded=1;whiteSpace=wrap;html=1;fillColor=#d5e8d4;strokeColor=#82b366;" parent="WIyWlLk6GJQsqaUBKTNV-1" vertex="1">
          <mxGeometry x="1303" y="180" width="150" height="40" as="geometry" />
        </mxCell>
        <mxCell id="9BdcQisxTK_R5sLs8ezM-18" value="&lt;font style=&quot;font-size: 19px;&quot;&gt;......&lt;/font&gt;" style="rounded=1;whiteSpace=wrap;html=1;fillColor=#d5e8d4;strokeColor=#82b366;" parent="WIyWlLk6GJQsqaUBKTNV-1" vertex="1">
          <mxGeometry x="1303" y="230" width="150" height="40" as="geometry" />
        </mxCell>
        <mxCell id="9BdcQisxTK_R5sLs8ezM-28" style="edgeStyle=orthogonalEdgeStyle;rounded=0;orthogonalLoop=1;jettySize=auto;html=1;exitX=1;exitY=0.5;exitDx=0;exitDy=0;entryX=0;entryY=0.5;entryDx=0;entryDy=0;" parent="WIyWlLk6GJQsqaUBKTNV-1" source="9BdcQisxTK_R5sLs8ezM-23" target="9BdcQisxTK_R5sLs8ezM-24" edge="1">
          <mxGeometry relative="1" as="geometry" />
        </mxCell>
        <mxCell id="9BdcQisxTK_R5sLs8ezM-29" style="edgeStyle=orthogonalEdgeStyle;rounded=0;orthogonalLoop=1;jettySize=auto;html=1;exitX=1;exitY=0.5;exitDx=0;exitDy=0;entryX=0;entryY=0.5;entryDx=0;entryDy=0;" parent="WIyWlLk6GJQsqaUBKTNV-1" source="9BdcQisxTK_R5sLs8ezM-23" target="9BdcQisxTK_R5sLs8ezM-26" edge="1">
          <mxGeometry relative="1" as="geometry" />
        </mxCell>
        <mxCell id="9BdcQisxTK_R5sLs8ezM-23" value="&lt;font style=&quot;font-size: 19px;&quot;&gt;link_kind&lt;/font&gt;" style="rounded=1;whiteSpace=wrap;html=1;" parent="WIyWlLk6GJQsqaUBKTNV-1" vertex="1">
          <mxGeometry x="981" y="338" width="100" height="40" as="geometry" />
        </mxCell>
        <mxCell id="9BdcQisxTK_R5sLs8ezM-24" value="&lt;font style=&quot;font-size: 19px;&quot;&gt;TOKEN_GLOBAL&lt;/font&gt;" style="rounded=1;whiteSpace=wrap;html=1;fillColor=#d5e8d4;strokeColor=#82b366;" parent="WIyWlLk6GJQsqaUBKTNV-1" vertex="1">
          <mxGeometry x="1123" y="310" width="190" height="40" as="geometry" />
        </mxCell>
        <mxCell id="9BdcQisxTK_R5sLs8ezM-26" value="&lt;font style=&quot;font-size: 19px;&quot;&gt;TOKEN_LOCAL&lt;/font&gt;" style="rounded=1;whiteSpace=wrap;html=1;fillColor=#d5e8d4;strokeColor=#82b366;" parent="WIyWlLk6GJQsqaUBKTNV-1" vertex="1">
          <mxGeometry x="1123" y="360" width="190" height="40" as="geometry" />
        </mxCell>
        <mxCell id="9BdcQisxTK_R5sLs8ezM-51" style="edgeStyle=orthogonalEdgeStyle;rounded=0;orthogonalLoop=1;jettySize=auto;html=1;exitX=1;exitY=0.5;exitDx=0;exitDy=0;entryX=0;entryY=0.5;entryDx=0;entryDy=0;" parent="WIyWlLk6GJQsqaUBKTNV-1" source="9BdcQisxTK_R5sLs8ezM-30" target="9BdcQisxTK_R5sLs8ezM-38" edge="1">
          <mxGeometry relative="1" as="geometry" />
        </mxCell>
        <mxCell id="9BdcQisxTK_R5sLs8ezM-30" value="&lt;font style=&quot;font-size: 19px;&quot;&gt;data_secion&lt;/font&gt;" style="rounded=1;whiteSpace=wrap;html=1;" parent="WIyWlLk6GJQsqaUBKTNV-1" vertex="1">
          <mxGeometry x="409" y="513" width="123" height="40" as="geometry" />
        </mxCell>
        <mxCell id="9BdcQisxTK_R5sLs8ezM-46" style="edgeStyle=orthogonalEdgeStyle;rounded=0;orthogonalLoop=1;jettySize=auto;html=1;exitX=1;exitY=0.5;exitDx=0;exitDy=0;entryX=0;entryY=0.5;entryDx=0;entryDy=0;" parent="WIyWlLk6GJQsqaUBKTNV-1" source="9BdcQisxTK_R5sLs8ezM-31" target="9BdcQisxTK_R5sLs8ezM-39" edge="1">
          <mxGeometry relative="1" as="geometry" />
        </mxCell>
        <mxCell id="9BdcQisxTK_R5sLs8ezM-31" value="&lt;font style=&quot;font-size: 19px;&quot;&gt;config_secion&lt;/font&gt;" style="rounded=1;whiteSpace=wrap;html=1;" parent="WIyWlLk6GJQsqaUBKTNV-1" vertex="1">
          <mxGeometry x="409" y="580" width="123" height="40" as="geometry" />
        </mxCell>
        <mxCell id="9BdcQisxTK_R5sLs8ezM-52" value="" style="edgeStyle=orthogonalEdgeStyle;rounded=0;orthogonalLoop=1;jettySize=auto;html=1;" parent="WIyWlLk6GJQsqaUBKTNV-1" source="9BdcQisxTK_R5sLs8ezM-32" target="9BdcQisxTK_R5sLs8ezM-40" edge="1">
          <mxGeometry relative="1" as="geometry" />
        </mxCell>
        <mxCell id="9BdcQisxTK_R5sLs8ezM-32" value="&lt;font style=&quot;font-size: 19px;&quot;&gt;param_secion&lt;/font&gt;" style="rounded=1;whiteSpace=wrap;html=1;" parent="WIyWlLk6GJQsqaUBKTNV-1" vertex="1">
          <mxGeometry x="409" y="712" width="123" height="40" as="geometry" />
        </mxCell>
        <mxCell id="9BdcQisxTK_R5sLs8ezM-57" value="" style="edgeStyle=orthogonalEdgeStyle;rounded=0;orthogonalLoop=1;jettySize=auto;html=1;" parent="WIyWlLk6GJQsqaUBKTNV-1" source="9BdcQisxTK_R5sLs8ezM-33" target="9BdcQisxTK_R5sLs8ezM-41" edge="1">
          <mxGeometry relative="1" as="geometry" />
        </mxCell>
        <mxCell id="9BdcQisxTK_R5sLs8ezM-33" value="&lt;font style=&quot;font-size: 19px;&quot;&gt;symbol_table&lt;/font&gt;" style="rounded=1;whiteSpace=wrap;html=1;" parent="WIyWlLk6GJQsqaUBKTNV-1" vertex="1">
          <mxGeometry x="409" y="772" width="123" height="40" as="geometry" />
        </mxCell>
        <mxCell id="eOl5LrlV80Rjif6QRTL--2" style="edgeStyle=orthogonalEdgeStyle;rounded=0;orthogonalLoop=1;jettySize=auto;html=1;exitX=0.5;exitY=0;exitDx=0;exitDy=0;entryX=0.5;entryY=1;entryDx=0;entryDy=0;" edge="1" parent="WIyWlLk6GJQsqaUBKTNV-1" source="9BdcQisxTK_R5sLs8ezM-38" target="9BdcQisxTK_R5sLs8ezM-9">
          <mxGeometry relative="1" as="geometry" />
        </mxCell>
        <mxCell id="9BdcQisxTK_R5sLs8ezM-38" value="&lt;font style=&quot;font-size: 19px;&quot;&gt;stmt_list&lt;/font&gt;" style="rounded=1;whiteSpace=wrap;html=1;" parent="WIyWlLk6GJQsqaUBKTNV-1" vertex="1">
          <mxGeometry x="569" y="513" width="143" height="40" as="geometry" />
        </mxCell>
        <mxCell id="9BdcQisxTK_R5sLs8ezM-47" style="edgeStyle=orthogonalEdgeStyle;rounded=0;orthogonalLoop=1;jettySize=auto;html=1;exitX=1;exitY=0.5;exitDx=0;exitDy=0;entryX=0;entryY=0.5;entryDx=0;entryDy=0;" parent="WIyWlLk6GJQsqaUBKTNV-1" source="9BdcQisxTK_R5sLs8ezM-39" target="9BdcQisxTK_R5sLs8ezM-42" edge="1">
          <mxGeometry relative="1" as="geometry" />
        </mxCell>
        <mxCell id="9BdcQisxTK_R5sLs8ezM-39" value="&lt;font style=&quot;font-size: 19px;&quot;&gt;config_dirct_list&lt;/font&gt;" style="rounded=1;whiteSpace=wrap;html=1;" parent="WIyWlLk6GJQsqaUBKTNV-1" vertex="1">
          <mxGeometry x="569" y="580" width="143" height="40" as="geometry" />
        </mxCell>
        <mxCell id="9BdcQisxTK_R5sLs8ezM-54" value="" style="edgeStyle=orthogonalEdgeStyle;rounded=0;orthogonalLoop=1;jettySize=auto;html=1;" parent="WIyWlLk6GJQsqaUBKTNV-1" source="9BdcQisxTK_R5sLs8ezM-40" target="9BdcQisxTK_R5sLs8ezM-53" edge="1">
          <mxGeometry relative="1" as="geometry" />
        </mxCell>
        <mxCell id="9BdcQisxTK_R5sLs8ezM-40" value="&lt;font style=&quot;font-size: 19px;&quot;&gt;param_dirct_list&lt;/font&gt;" style="rounded=1;whiteSpace=wrap;html=1;" parent="WIyWlLk6GJQsqaUBKTNV-1" vertex="1">
          <mxGeometry x="569" y="712" width="143" height="40" as="geometry" />
        </mxCell>
        <mxCell id="9BdcQisxTK_R5sLs8ezM-59" style="edgeStyle=orthogonalEdgeStyle;rounded=0;orthogonalLoop=1;jettySize=auto;html=1;exitX=1;exitY=0.5;exitDx=0;exitDy=0;entryX=0;entryY=0.5;entryDx=0;entryDy=0;" parent="WIyWlLk6GJQsqaUBKTNV-1" source="9BdcQisxTK_R5sLs8ezM-41" target="9BdcQisxTK_R5sLs8ezM-58" edge="1">
          <mxGeometry relative="1" as="geometry" />
        </mxCell>
        <mxCell id="9BdcQisxTK_R5sLs8ezM-41" value="&lt;font style=&quot;font-size: 19px;&quot;&gt;symtab_dirct_list&lt;/font&gt;" style="rounded=1;whiteSpace=wrap;html=1;" parent="WIyWlLk6GJQsqaUBKTNV-1" vertex="1">
          <mxGeometry x="569" y="772" width="143" height="40" as="geometry" />
        </mxCell>
        <mxCell id="9BdcQisxTK_R5sLs8ezM-49" style="edgeStyle=orthogonalEdgeStyle;rounded=0;orthogonalLoop=1;jettySize=auto;html=1;exitX=1;exitY=0.5;exitDx=0;exitDy=0;entryX=0;entryY=0.5;entryDx=0;entryDy=0;" parent="WIyWlLk6GJQsqaUBKTNV-1" source="9BdcQisxTK_R5sLs8ezM-42" target="9BdcQisxTK_R5sLs8ezM-45" edge="1">
          <mxGeometry relative="1" as="geometry" />
        </mxCell>
        <mxCell id="eOl5LrlV80Rjif6QRTL--0" style="edgeStyle=orthogonalEdgeStyle;rounded=0;orthogonalLoop=1;jettySize=auto;html=1;exitX=1;exitY=0.5;exitDx=0;exitDy=0;entryX=0;entryY=0.5;entryDx=0;entryDy=0;" edge="1" parent="WIyWlLk6GJQsqaUBKTNV-1" source="9BdcQisxTK_R5sLs8ezM-42" target="9BdcQisxTK_R5sLs8ezM-44">
          <mxGeometry relative="1" as="geometry" />
        </mxCell>
        <mxCell id="eOl5LrlV80Rjif6QRTL--1" style="edgeStyle=orthogonalEdgeStyle;rounded=0;orthogonalLoop=1;jettySize=auto;html=1;exitX=1;exitY=0.5;exitDx=0;exitDy=0;entryX=0;entryY=0.5;entryDx=0;entryDy=0;" edge="1" parent="WIyWlLk6GJQsqaUBKTNV-1" source="9BdcQisxTK_R5sLs8ezM-42" target="9BdcQisxTK_R5sLs8ezM-43">
          <mxGeometry relative="1" as="geometry" />
        </mxCell>
        <mxCell id="9BdcQisxTK_R5sLs8ezM-42" value="&lt;font style=&quot;font-size: 19px;&quot;&gt;config_dirct&lt;/font&gt;" style="rounded=1;whiteSpace=wrap;html=1;" parent="WIyWlLk6GJQsqaUBKTNV-1" vertex="1">
          <mxGeometry x="742" y="580" width="123" height="40" as="geometry" />
        </mxCell>
        <mxCell id="9BdcQisxTK_R5sLs8ezM-43" value="&lt;font style=&quot;font-size: 19px;&quot;&gt;......&lt;/font&gt;" style="rounded=1;whiteSpace=wrap;html=1;fillColor=#d5e8d4;strokeColor=#82b366;" parent="WIyWlLk6GJQsqaUBKTNV-1" vertex="1">
          <mxGeometry x="931" y="629" width="150" height="40" as="geometry" />
        </mxCell>
        <mxCell id="9BdcQisxTK_R5sLs8ezM-44" value="&lt;font style=&quot;font-size: 19px;&quot;&gt;wram_phy_num&lt;/font&gt;" style="rounded=1;whiteSpace=wrap;html=1;fillColor=#d5e8d4;strokeColor=#82b366;" parent="WIyWlLk6GJQsqaUBKTNV-1" vertex="1">
          <mxGeometry x="932" y="529" width="150" height="40" as="geometry" />
        </mxCell>
        <mxCell id="9BdcQisxTK_R5sLs8ezM-45" value="&lt;font style=&quot;font-size: 19px;&quot;&gt;address_patten&lt;/font&gt;" style="rounded=1;whiteSpace=wrap;html=1;fillColor=#d5e8d4;strokeColor=#82b366;" parent="WIyWlLk6GJQsqaUBKTNV-1" vertex="1">
          <mxGeometry x="932" y="580" width="150" height="40" as="geometry" />
        </mxCell>
        <mxCell id="9BdcQisxTK_R5sLs8ezM-62" style="edgeStyle=orthogonalEdgeStyle;rounded=0;orthogonalLoop=1;jettySize=auto;html=1;exitX=1;exitY=0.5;exitDx=0;exitDy=0;entryX=0;entryY=0.5;entryDx=0;entryDy=0;" parent="WIyWlLk6GJQsqaUBKTNV-1" source="9BdcQisxTK_R5sLs8ezM-53" target="9BdcQisxTK_R5sLs8ezM-60" edge="1">
          <mxGeometry relative="1" as="geometry" />
        </mxCell>
        <mxCell id="9BdcQisxTK_R5sLs8ezM-53" value="&lt;font style=&quot;font-size: 19px;&quot;&gt;param_dirct&lt;/font&gt;" style="rounded=1;whiteSpace=wrap;html=1;" parent="WIyWlLk6GJQsqaUBKTNV-1" vertex="1">
          <mxGeometry x="742" y="712" width="123" height="40" as="geometry" />
        </mxCell>
        <mxCell id="9BdcQisxTK_R5sLs8ezM-66" style="edgeStyle=orthogonalEdgeStyle;rounded=0;orthogonalLoop=1;jettySize=auto;html=1;exitX=1;exitY=0.5;exitDx=0;exitDy=0;entryX=0;entryY=0.5;entryDx=0;entryDy=0;" parent="WIyWlLk6GJQsqaUBKTNV-1" source="9BdcQisxTK_R5sLs8ezM-58" target="9BdcQisxTK_R5sLs8ezM-64" edge="1">
          <mxGeometry relative="1" as="geometry" />
        </mxCell>
        <mxCell id="9BdcQisxTK_R5sLs8ezM-67" style="edgeStyle=orthogonalEdgeStyle;rounded=0;orthogonalLoop=1;jettySize=auto;html=1;exitX=1;exitY=0.5;exitDx=0;exitDy=0;entryX=0;entryY=0.5;entryDx=0;entryDy=0;" parent="WIyWlLk6GJQsqaUBKTNV-1" source="9BdcQisxTK_R5sLs8ezM-58" target="9BdcQisxTK_R5sLs8ezM-65" edge="1">
          <mxGeometry relative="1" as="geometry">
            <Array as="points">
              <mxPoint x="872" y="792" />
              <mxPoint x="872" y="842" />
            </Array>
          </mxGeometry>
        </mxCell>
        <mxCell id="9BdcQisxTK_R5sLs8ezM-58" value="&lt;font style=&quot;font-size: 19px;&quot;&gt;symtab_dirct&lt;/font&gt;" style="rounded=1;whiteSpace=wrap;html=1;" parent="WIyWlLk6GJQsqaUBKTNV-1" vertex="1">
          <mxGeometry x="742" y="772" width="123" height="40" as="geometry" />
        </mxCell>
        <mxCell id="9BdcQisxTK_R5sLs8ezM-63" style="edgeStyle=orthogonalEdgeStyle;rounded=0;orthogonalLoop=1;jettySize=auto;html=1;exitX=1;exitY=0.5;exitDx=0;exitDy=0;entryX=0;entryY=0.5;entryDx=0;entryDy=0;" parent="WIyWlLk6GJQsqaUBKTNV-1" source="9BdcQisxTK_R5sLs8ezM-60" target="9BdcQisxTK_R5sLs8ezM-61" edge="1">
          <mxGeometry relative="1" as="geometry" />
        </mxCell>
        <mxCell id="9BdcQisxTK_R5sLs8ezM-60" value="&lt;font style=&quot;font-size: 19px;&quot;&gt;param_list&lt;/font&gt;" style="rounded=1;whiteSpace=wrap;html=1;" parent="WIyWlLk6GJQsqaUBKTNV-1" vertex="1">
          <mxGeometry x="882" y="712" width="123" height="40" as="geometry" />
        </mxCell>
        <mxCell id="9BdcQisxTK_R5sLs8ezM-61" value="&lt;font style=&quot;font-size: 19px;&quot;&gt;TOKEN_UNSIGNED_DECIMAL_CONSTANT&lt;/font&gt;" style="rounded=1;whiteSpace=wrap;html=1;fillColor=#d5e8d4;strokeColor=#82b366;" parent="WIyWlLk6GJQsqaUBKTNV-1" vertex="1">
          <mxGeometry x="1022" y="712" width="410" height="40" as="geometry" />
        </mxCell>
        <mxCell id="9BdcQisxTK_R5sLs8ezM-64" value="&lt;font style=&quot;font-size: 19px;&quot;&gt;TOKEN_GLOBAL&lt;/font&gt;" style="rounded=1;whiteSpace=wrap;html=1;fillColor=#d5e8d4;strokeColor=#82b366;" parent="WIyWlLk6GJQsqaUBKTNV-1" vertex="1">
          <mxGeometry x="891" y="772" width="190" height="40" as="geometry" />
        </mxCell>
        <mxCell id="9BdcQisxTK_R5sLs8ezM-65" value="&lt;font style=&quot;font-size: 19px;&quot;&gt;TOKEN_LOCAL&lt;/font&gt;" style="rounded=1;whiteSpace=wrap;html=1;fillColor=#d5e8d4;strokeColor=#82b366;" parent="WIyWlLk6GJQsqaUBKTNV-1" vertex="1">
          <mxGeometry x="892" y="822" width="190" height="40" as="geometry" />
        </mxCell>
      </root>
    </mxGraphModel>
  </diagram>
</mxfile>
